<svg xmlns="http://www.w3.org/2000/svg" viewBox="0 0 640 760" role="img" aria-hidden="true">
  <rect width="640" height="760" rx="48" fill="#FFF9F5"/>
  <rect x="28" y="28" width="584" height="704" rx="36" fill="#F7E8EC" stroke="#C9A96E" stroke-width="1.5"/>
  <rect x="48" y="48" width="544" height="664" rx="28" fill="none" stroke="#E7C4CC" stroke-width="1"/>
  <g fill="none" stroke="#C9A96E" stroke-width="1.2" opacity=".85">
    <path d="M120 180c28-36 78-36 106 0"/>
    <path d="M132 180c20-24 62-24 82 0"/>
    <circle cx="173" cy="168" r="3" fill="#C9A96E" stroke="none"/>
  </g>
  <g transform="translate(250 230)">
    <mask id="crescent">
      <rect width="180" height="180" fill="black"/>
      <circle cx="78" cy="90" r="62" fill="white"/>
      <circle cx="104" cy="78" r="52" fill="black"/>
    </mask>
    <circle cx="78" cy="90" r="62" fill="#D8A7B1" mask="url(#crescent)"/>
    <path fill="#C9A96E" d="M150 46l4.2 10.2 11 .8-8.6 6.8 2.8 10.6L150 68.8 140.6 74.4l2.8-10.6-8.6-6.8 11-.8z"/>
  </g>
  <g fill="none" stroke="#D8A7B1" stroke-width="1.4" stroke-linecap="round">
    <path d="M210 520c20 18 20 42 0 62"/>
    <path d="M210 536c12 8 18 18 18 30"/>
    <circle cx="214" cy="512" r="7" fill="#F7E8EC"/>
    <path d="M300 500c22 20 22 48 0 70"/>
    <path d="M300 518c14 10 20 22 20 36"/>
    <circle cx="304" cy="490" r="8" fill="#F7E8EC"/>
    <path d="M390 528c18 16 18 38 0 56"/>
    <path d="M390 542c10 8 16 16 16 28"/>
    <circle cx="394" cy="520" r="6" fill="#F7E8EC"/>
  </g>
  <g fill="#C9A96E" opacity=".8">
    <circle cx="150" cy="430" r="2"/>
    <circle cx="470" cy="250" r="2"/>
    <circle cx="500" cy="420" r="1.6"/>
    <circle cx="180" cy="300" r="1.5"/>
  </g>
</svg>
